<mxfile host="app.diagrams.net" modified="2023-02-16T09:32:37.873Z" agent="5.0 (Windows NT 10.0; Win64; x64) AppleWebKit/537.36 (KHTML, like Gecko) Chrome/109.0.0.0 Safari/537.36" etag="3n3SVkfHAhNa9Ek0k_xA" version="20.8.20" type="github">
  <diagram id="C5RBs43oDa-KdzZeNtuy" name="Page-1">
    <mxGraphModel dx="1050" dy="549" grid="1" gridSize="10" guides="1" tooltips="1" connect="1" arrows="1" fold="1" page="1" pageScale="1" pageWidth="827" pageHeight="1169" math="0" shadow="0">
      <root>
        <mxCell id="WIyWlLk6GJQsqaUBKTNV-0" />
        <mxCell id="WIyWlLk6GJQsqaUBKTNV-1" parent="WIyWlLk6GJQsqaUBKTNV-0" />
        <mxCell id="C9AXKPHVNTg6hDH__SYs-3" value="" style="edgeStyle=orthogonalEdgeStyle;rounded=0;orthogonalLoop=1;jettySize=auto;html=1;" edge="1" parent="WIyWlLk6GJQsqaUBKTNV-1" source="C9AXKPHVNTg6hDH__SYs-0" target="C9AXKPHVNTg6hDH__SYs-2">
          <mxGeometry relative="1" as="geometry" />
        </mxCell>
        <mxCell id="C9AXKPHVNTg6hDH__SYs-0" value="START" style="ellipse;whiteSpace=wrap;html=1;" vertex="1" parent="WIyWlLk6GJQsqaUBKTNV-1">
          <mxGeometry x="294" y="40" width="120" height="80" as="geometry" />
        </mxCell>
        <mxCell id="C9AXKPHVNTg6hDH__SYs-1" value="STOP" style="ellipse;whiteSpace=wrap;html=1;" vertex="1" parent="WIyWlLk6GJQsqaUBKTNV-1">
          <mxGeometry x="294" y="460" width="120" height="80" as="geometry" />
        </mxCell>
        <mxCell id="C9AXKPHVNTg6hDH__SYs-5" value="" style="edgeStyle=orthogonalEdgeStyle;rounded=0;orthogonalLoop=1;jettySize=auto;html=1;" edge="1" parent="WIyWlLk6GJQsqaUBKTNV-1" source="C9AXKPHVNTg6hDH__SYs-2" target="C9AXKPHVNTg6hDH__SYs-4">
          <mxGeometry relative="1" as="geometry" />
        </mxCell>
        <mxCell id="C9AXKPHVNTg6hDH__SYs-2" value="Podaw tablice a;&lt;br&gt;i = 0;&lt;br&gt;wynik = 0;" style="rounded=0;whiteSpace=wrap;html=1;" vertex="1" parent="WIyWlLk6GJQsqaUBKTNV-1">
          <mxGeometry x="294" y="150" width="120" height="60" as="geometry" />
        </mxCell>
        <mxCell id="C9AXKPHVNTg6hDH__SYs-7" value="NIE" style="edgeStyle=orthogonalEdgeStyle;rounded=0;orthogonalLoop=1;jettySize=auto;html=1;" edge="1" parent="WIyWlLk6GJQsqaUBKTNV-1" source="C9AXKPHVNTg6hDH__SYs-4" target="C9AXKPHVNTg6hDH__SYs-6">
          <mxGeometry relative="1" as="geometry" />
        </mxCell>
        <mxCell id="C9AXKPHVNTg6hDH__SYs-10" value="" style="edgeStyle=orthogonalEdgeStyle;rounded=0;orthogonalLoop=1;jettySize=auto;html=1;" edge="1" parent="WIyWlLk6GJQsqaUBKTNV-1" source="C9AXKPHVNTg6hDH__SYs-4" target="C9AXKPHVNTg6hDH__SYs-9">
          <mxGeometry relative="1" as="geometry" />
        </mxCell>
        <mxCell id="C9AXKPHVNTg6hDH__SYs-11" value="TAK" style="edgeLabel;html=1;align=center;verticalAlign=middle;resizable=0;points=[];" vertex="1" connectable="0" parent="C9AXKPHVNTg6hDH__SYs-10">
          <mxGeometry x="-0.2372" y="1" relative="1" as="geometry">
            <mxPoint as="offset" />
          </mxGeometry>
        </mxCell>
        <mxCell id="C9AXKPHVNTg6hDH__SYs-4" value="i &amp;lt; a.dlugosc" style="rhombus;whiteSpace=wrap;html=1;" vertex="1" parent="WIyWlLk6GJQsqaUBKTNV-1">
          <mxGeometry x="314" y="240" width="80" height="80" as="geometry" />
        </mxCell>
        <mxCell id="C9AXKPHVNTg6hDH__SYs-8" value="" style="edgeStyle=orthogonalEdgeStyle;rounded=0;orthogonalLoop=1;jettySize=auto;html=1;" edge="1" parent="WIyWlLk6GJQsqaUBKTNV-1" source="C9AXKPHVNTg6hDH__SYs-6" target="C9AXKPHVNTg6hDH__SYs-1">
          <mxGeometry relative="1" as="geometry" />
        </mxCell>
        <mxCell id="C9AXKPHVNTg6hDH__SYs-6" value="WyÅ›wietl wynik" style="rounded=0;whiteSpace=wrap;html=1;" vertex="1" parent="WIyWlLk6GJQsqaUBKTNV-1">
          <mxGeometry x="294" y="370" width="120" height="60" as="geometry" />
        </mxCell>
        <mxCell id="C9AXKPHVNTg6hDH__SYs-12" style="edgeStyle=orthogonalEdgeStyle;rounded=0;orthogonalLoop=1;jettySize=auto;html=1;entryX=0.5;entryY=0;entryDx=0;entryDy=0;" edge="1" parent="WIyWlLk6GJQsqaUBKTNV-1" source="C9AXKPHVNTg6hDH__SYs-9" target="C9AXKPHVNTg6hDH__SYs-4">
          <mxGeometry relative="1" as="geometry">
            <mxPoint x="350" y="230" as="targetPoint" />
            <Array as="points">
              <mxPoint x="540" y="230" />
              <mxPoint x="354" y="230" />
            </Array>
          </mxGeometry>
        </mxCell>
        <mxCell id="C9AXKPHVNTg6hDH__SYs-9" value="wynik = wynik + a[i];&lt;br&gt;i = i+1" style="rounded=0;whiteSpace=wrap;html=1;" vertex="1" parent="WIyWlLk6GJQsqaUBKTNV-1">
          <mxGeometry x="480" y="250" width="120" height="60" as="geometry" />
        </mxCell>
      </root>
    </mxGraphModel>
  </diagram>
</mxfile>
